<?xml version="1.0" standalone="no"?>
<!DOCTYPE svg PUBLIC "-//W3C//DTD SVG 20010904//EN"
 "http://www.w3.org/TR/2001/REC-SVG-20010904/DTD/svg10.dtd">
<svg version="1.0" xmlns="http://www.w3.org/2000/svg"
 width="260.000000pt" height="260.000000pt" viewBox="0 0 260.000000 260.000000"
 preserveAspectRatio="xMidYMid meet">
<metadata>
Created by potrace 1.14, written by Peter Selinger 2001-2017
</metadata>
<g transform="translate(0.000000,260.000000) scale(0.100000,-0.100000)"
fill="#000000" stroke="none">
<path d="M1961 2379 c-17 -10 -29 -24 -25 -30 7 -12 49 -4 77 16 19 13 19 13
0 24 -15 7 -27 5 -52 -10z"/>
<path d="M1861 2314 c-17 -14 -31 -32 -31 -40 0 -19 7 -18 45 6 33 21 49 43
38 54 -11 10 -21 7 -52 -20z"/>
<path d="M1802 2215 c-15 -32 -15 -92 -1 -100 16 -10 21 0 29 52 11 71 -5 98
-28 48z"/>
<path d="M1500 2214 c-94 -41 -156 -158 -132 -248 10 -34 9 -36 -11 -32 -12 3
-47 8 -78 11 l-56 6 1 61 c1 41 -3 62 -12 65 -15 6 -56 -82 -49 -107 4 -15 -5
-19 -76 -25 -108 -9 -214 -37 -305 -81 -46 -22 -78 -32 -80 -26 -6 19 -43 62
-53 62 -11 0 -12 -80 -1 -97 5 -8 -15 -36 -54 -78 -80 -85 -143 -204 -168
-318 l-6 -27 -30 21 c-63 47 -74 -7 -14 -65 31 -30 34 -38 34 -92 1 -174 89
-338 216 -400 29 -14 56 -34 59 -44 9 -29 62 -91 105 -123 100 -73 280 -102
448 -73 108 19 105 19 98 7 -8 -13 29 -129 54 -169 11 -18 25 -30 30 -27 26
16 -6 152 -46 196 -14 15 -14 19 -3 23 126 44 223 95 303 161 l53 43 92 -46
c70 -35 94 -43 103 -34 17 17 -20 53 -92 91 l-59 32 39 60 c52 81 79 155 92
254 l10 82 62 -1 c33 -1 73 2 89 7 23 6 27 4 27 -13 0 -55 75 -146 144 -175
67 -28 63 -3 -13 73 -38 39 -77 83 -87 97 -9 14 -23 25 -30 25 -8 0 -14 4 -14
9 0 17 -63 35 -125 35 l-62 1 -12 55 c-6 30 -14 64 -17 75 -5 19 0 20 68 20
60 0 83 5 131 29 108 52 176 175 164 294 -11 108 -96 224 -185 253 -51 16 -57
24 -38 50 18 26 21 59 6 59 -5 0 -24 -19 -41 -42 -26 -37 -36 -44 -77 -49 -26
-3 -59 -9 -73 -13 -24 -7 -28 -4 -38 26 -14 43 -74 102 -123 123 -47 19 -122
19 -168 -1z m166 -38 c57 -26 91 -67 100 -118 10 -59 11 -59 49 -36 56 32 157
36 223 8 58 -25 125 -92 149 -148 24 -56 22 -147 -5 -207 -29 -63 -64 -100
-127 -133 -67 -35 -170 -37 -231 -5 -103 55 -154 134 -154 239 l0 63 -31 -11
c-40 -14 -113 -3 -155 23 -83 51 -110 175 -57 257 31 48 107 92 157 92 17 0
54 -11 82 -24z m-596 -276 c11 -11 20 -29 20 -40 0 -26 -34 -60 -60 -60 -21 0
-60 36 -60 56 0 21 41 64 61 64 10 0 28 -9 39 -20z m-245 -146 c22 -9 46 -59
38 -81 -24 -69 -121 -71 -134 -3 -11 56 44 104 96 84z m660 -137 c17 -14 28
-36 32 -63 10 -75 -63 -129 -135 -98 -64 26 -75 113 -20 159 38 32 88 33 123
2z m-856 -71 c38 -46 -25 -111 -69 -71 -24 22 -25 42 -3 67 19 22 56 24 72 4z
m519 -62 c42 -29 17 -104 -35 -104 -20 0 -53 38 -53 60 0 22 33 60 53 60 7 0
23 -7 35 -16z m-524 -165 c67 -53 -1 -168 -76 -128 -53 28 -64 84 -23 124 30
30 64 32 99 4z m607 -128 c16 -16 29 -39 29 -51 0 -28 -52 -80 -80 -80 -27 0
-80 52 -80 78 0 31 48 82 77 82 14 0 37 -13 54 -29z m367 -54 c30 -27 29 -71
-3 -102 -30 -30 -64 -32 -99 -4 -43 34 -34 99 19 127 24 14 53 6 83 -21z
m-953 -161 c28 -43 -18 -91 -63 -67 -26 14 -33 45 -15 70 19 29 59 27 78 -3z
m343 -62 c49 -56 9 -144 -67 -144 -34 0 -81 48 -81 84 0 85 92 122 148 60z
m362 -3 c72 -51 30 -171 -60 -171 -82 0 -130 110 -72 163 42 39 85 41 132 8z"/>
<path d="M1664 2138 c12 -10 17 -21 13 -32 -10 -25 -42 -15 -41 12 1 29 -10
28 -35 -4 -29 -37 -26 -70 8 -105 39 -38 74 -38 113 1 25 26 29 36 24 63 -8
39 -32 64 -71 73 -28 6 -29 5 -11 -8z"/>
<path d="M1911 1989 c-44 -41 -48 -93 -8 -136 39 -43 119 -34 147 16 46 87
-68 186 -139 120z m57 -25 c4 -27 -22 -38 -42 -18 -8 8 -13 21 -9 30 8 22 47
13 51 -12z"/>
<path d="M2071 2187 c-14 -18 -4 -27 31 -27 35 0 71 17 63 31 -9 14 -81 11
-94 -4z"/>
<path d="M2223 2134 c7 -39 24 -67 38 -58 14 8 10 47 -7 72 -23 34 -38 27 -31
-14z"/>
<path d="M983 2143 c-12 -2 -27 -10 -33 -18 -9 -10 -4 -15 22 -23 85 -26 193
-22 193 8 0 26 -113 46 -182 33z"/>
<path d="M855 2111 c-34 -5 -40 -10 -40 -31 0 -14 6 -26 16 -28 18 -3 83 39
82 53 -2 12 -10 13 -58 6z"/>
<path d="M498 1926 c-50 -14 -98 -41 -98 -56 0 -15 86 -12 145 5 125 37 80 85
-47 51z"/>
<path d="M310 1851 c-29 -5 -35 -10 -35 -31 0 -14 6 -26 15 -27 21 -4 80 34
80 52 0 16 -4 16 -60 6z"/>
<path d="M230 1409 c-45 -27 -110 -89 -110 -106 0 -21 33 -15 81 16 48 31 109
88 109 102 0 16 -44 9 -80 -12z"/>
<path d="M9 1284 c-6 -8 -8 -21 -5 -30 5 -13 15 -15 43 -11 33 6 73 31 62 40
-2 3 -23 7 -46 10 -29 3 -46 1 -54 -9z"/>
<path d="M2300 1071 c0 -17 53 -52 74 -49 15 2 21 10 21 28 0 23 -4 25 -47 28
-27 2 -48 -1 -48 -7z"/>
<path d="M1930 724 c-12 -31 -13 -174 -1 -193 33 -51 65 94 40 182 -12 43 -26
47 -39 11z"/>
<path d="M1863 499 c-35 -22 -41 -37 -21 -57 20 -20 33 -14 60 27 36 55 20 68
-39 30z"/>
<path d="M1273 390 c-37 -22 -59 -58 -45 -72 19 -19 142 49 142 78 0 21 -59
18 -97 -6z"/>
<path d="M1870 394 c0 -25 40 -74 60 -74 16 0 39 36 28 44 -12 8 -80 46 -84
46 -2 0 -4 -7 -4 -16z"/>
<path d="M1164 315 c-19 -30 -29 -104 -15 -124 17 -25 39 -3 51 51 19 86 -1
127 -36 73z"/>
<path d="M1170 145 c0 -8 13 -29 29 -47 25 -28 31 -30 45 -19 25 21 19 37 -20
60 -42 25 -54 26 -54 6z"/>
</g>
</svg>
