<?xml version="1.0" standalone="no"?>
<!DOCTYPE svg PUBLIC "-//W3C//DTD SVG 20010904//EN"
 "http://www.w3.org/TR/2001/REC-SVG-20010904/DTD/svg10.dtd">
<svg version="1.0" xmlns="http://www.w3.org/2000/svg"
 width="260.000000pt" height="260.000000pt" viewBox="0 0 260.000000 260.000000"
 preserveAspectRatio="xMidYMid meet">
<metadata>
Created by potrace 1.14, written by Peter Selinger 2001-2017
</metadata>
<g transform="translate(0.000000,260.000000) scale(0.100000,-0.100000)"
fill="#000000" stroke="none">
<path d="M892 2228 c-51 -53 -77 -122 -76 -203 0 -75 12 -105 77 -201 22 -34
36 -69 41 -102 6 -51 7 -51 59 -67 116 -38 217 -106 277 -188 l28 -37 21 34
c46 73 149 145 272 187 l67 23 5 53 c4 40 15 66 43 105 57 80 74 125 74 198 0
79 -30 148 -85 200 -38 35 -38 35 -19 5 35 -52 44 -84 44 -149 0 -51 -5 -70
-29 -107 -51 -81 -166 -135 -245 -115 -14 3 -41 20 -60 37 -40 34 -51 76 -62
225 -12 163 -38 155 -54 -16 -6 -63 -18 -134 -26 -158 -21 -57 -75 -94 -137
-94 -87 0 -199 83 -227 167 -18 53 -7 137 25 190 14 25 24 45 22 45 -2 0 -17
-15 -35 -32z m427 -193 c2 -100 46 -163 129 -188 34 -11 40 -15 22 -16 -14 -1
-46 9 -70 22 -68 34 -89 79 -94 208 -4 77 -3 92 4 59 5 -25 9 -63 9 -85z m440
76 c27 -81 9 -163 -54 -256 -24 -35 -48 -79 -54 -97 -8 -29 -9 -30 -10 -8 -1
24 6 37 71 142 36 58 50 133 38 199 -5 28 -13 56 -16 62 -5 8 -4 9 3 2 6 -5
15 -25 22 -44z"/>
<path d="M2116 2159 c-3 -13 -21 -114 -41 -224 -20 -110 -40 -224 -46 -252
l-10 -53 -81 -41 c-44 -23 -82 -47 -84 -54 -3 -6 -4 -47 -2 -90 l3 -78 130
107 130 107 5 297 c3 163 4 299 3 301 -1 2 -4 -7 -7 -20z"/>
<path d="M482 1880 l-1 -295 110 -90 c166 -136 149 -132 149 -32 l0 86 -78 41
-78 40 -34 183 c-18 100 -41 223 -50 272 l-18 90 0 -295z"/>
<path d="M780 1228 c0 -221 4 -429 10 -462 28 -173 174 -334 341 -376 63 -16
103 4 119 58 8 25 10 175 8 472 -3 433 -3 435 -26 482 -53 107 -209 192 -409
223 l-43 7 0 -404z"/>
<path d="M1755 1624 c-208 -43 -339 -115 -389 -215 l-26 -53 0 -462 0 -462 31
-26 c36 -30 49 -32 113 -10 156 53 270 174 311 329 12 49 15 134 15 482 0 464
5 429 -55 417z m3 -459 c2 -395 1 -406 -50 -509 -41 -82 -196 -216 -233 -202
-28 10 -14 31 57 81 75 52 127 118 164 205 17 41 19 79 22 423 3 348 5 378 20
375 16 -3 17 -36 20 -373z"/>
<path d="M670 1065 l-65 -55 7 -92 c3 -51 7 -132 7 -180 1 -49 4 -88 9 -88 4
0 20 69 37 152 23 121 34 157 51 173 17 16 23 34 25 83 2 34 2 62 -1 62 -3 -1
-34 -26 -70 -55z"/>
<path d="M1850 1033 l0 -69 39 -22 38 -22 34 -167 34 -168 6 95 c4 52 9 138
12 190 l5 95 -55 45 c-30 25 -68 55 -84 68 l-29 23 0 -68z"/>
<path d="M735 644 c-22 -13 -44 -25 -49 -27 -5 -2 30 -103 80 -224 49 -122 90
-221 91 -219 1 1 -7 78 -19 170 -20 156 -20 169 -5 178 15 8 14 13 -9 50 -15
23 -32 54 -38 69 l-11 27 -40 -24z"/>
<path d="M1786 603 c-30 -57 -34 -69 -22 -82 11 -13 9 -43 -10 -181 -12 -91
-21 -166 -19 -168 3 -3 175 425 175 436 0 4 -21 19 -45 34 l-44 27 -35 -66z"/>
</g>
</svg>
